<svg width="132" height="43" viewBox="0 0 132 43" fill="none" xmlns="http://www.w3.org/2000/svg">
<rect x="0.5" y="5.5" width="131" height="37" rx="5.5" fill="white" stroke="#D1D1D1"/>
<rect width="63" height="10" transform="translate(8)" fill="white"/>
<path d="M18.669 1.72727H17.5824V7.06818H17.5149L13.8146 1.72727H12.799V9H13.8963V3.66619H13.9638L17.6605 9H18.669V1.72727ZM21.5218 9.12074C22.4238 9.12074 22.9316 8.66264 23.1341 8.25426H23.1767V9H24.2136V5.37784C24.2136 3.79048 22.9636 3.47443 22.0971 3.47443C21.1099 3.47443 20.2008 3.87216 19.8457 4.86648L20.8436 5.09375C20.9998 4.70668 21.3975 4.33381 22.1113 4.33381C22.7967 4.33381 23.1483 4.69247 23.1483 5.31037V5.33523C23.1483 5.7223 22.7505 5.7152 21.7704 5.82884C20.737 5.94957 19.6788 6.21946 19.6788 7.45881C19.6788 8.53125 20.4849 9.12074 21.5218 9.12074ZM21.7527 8.26847C21.1525 8.26847 20.7193 7.99858 20.7193 7.47301C20.7193 6.90483 21.2235 6.70241 21.8379 6.62074C22.1824 6.57457 22.9991 6.48224 23.1518 6.32955V7.03267C23.1518 7.67898 22.6369 8.26847 21.7527 8.26847ZM29.4652 4.87713C29.245 4.02841 28.581 3.47443 27.402 3.47443C26.1697 3.47443 25.2962 4.12429 25.2962 5.0902C25.2962 5.86435 25.7649 6.37926 26.7876 6.60653L27.7109 6.80895C28.2365 6.92614 28.4815 7.16051 28.4815 7.50142C28.4815 7.92401 28.0305 8.25426 27.3345 8.25426C26.6989 8.25426 26.2905 7.98082 26.1626 7.4446L25.1364 7.60085C25.3139 8.56676 26.1165 9.11009 27.3416 9.11009C28.6591 9.11009 29.5717 8.41051 29.5717 7.4233C29.5717 6.6527 29.0817 6.17685 28.0803 5.94602L27.2138 5.74716C26.6136 5.60511 26.3544 5.4027 26.358 5.03338C26.3544 4.61435 26.8089 4.31605 27.4126 4.31605C28.0732 4.31605 28.3786 4.68182 28.5028 5.04759L29.4652 4.87713ZM32.7868 9.11009C34.0758 9.11009 34.9103 8.33594 35.0275 7.27415H33.9941C33.8592 7.86364 33.4011 8.21165 32.7939 8.21165C31.8954 8.21165 31.3166 7.46236 31.3166 6.27273C31.3166 5.1044 31.9061 4.36932 32.7939 4.36932C33.4686 4.36932 33.8805 4.79545 33.9941 5.30682H35.0275C34.9139 4.20597 34.0154 3.47443 32.7761 3.47443C31.2385 3.47443 30.2441 4.6321 30.2441 6.29759C30.2441 7.94176 31.2029 9.11009 32.7868 9.11009ZM35.913 9H36.9748V3.54545H35.913V9ZM36.4492 2.70384C36.815 2.70384 37.1204 2.41974 37.1204 2.07173C37.1204 1.72372 36.815 1.43608 36.4492 1.43608C36.0799 1.43608 35.7781 1.72372 35.7781 2.07173C35.7781 2.41974 36.0799 2.70384 36.4492 2.70384ZM38.1532 9H39.215V5.63707C39.215 4.90199 39.7299 4.39062 40.3336 4.39062C40.9231 4.39062 41.3315 4.78125 41.3315 5.37429V9H42.3897V5.52344C42.3897 4.86648 42.791 4.39062 43.4835 4.39062C44.0446 4.39062 44.5062 4.70312 44.5062 5.44176V9H45.568V5.34233C45.568 4.09588 44.872 3.47443 43.8848 3.47443C43.1 3.47443 42.5105 3.85085 42.2477 4.43324H42.1909C41.9529 3.83665 41.4522 3.47443 40.7243 3.47443C40.0034 3.47443 39.4672 3.8331 39.2399 4.43324H39.1724V3.54545H38.1532V9ZM49.092 9.11009C50.2816 9.11009 51.1232 8.52415 51.3647 7.63636L50.3597 7.45526C50.168 7.97017 49.7063 8.23295 49.1026 8.23295C48.1935 8.23295 47.5827 7.64347 47.5543 6.59233H51.4322V6.21591C51.4322 4.24503 50.2532 3.47443 49.0174 3.47443C47.4975 3.47443 46.4961 4.6321 46.4961 6.30824C46.4961 8.00213 47.4833 9.11009 49.092 9.11009ZM47.5579 5.79688C47.6005 5.02273 48.1616 4.35156 49.0245 4.35156C49.8484 4.35156 50.3881 4.96236 50.3917 5.79688H47.5579ZM53.4221 5.76136C53.4221 4.89134 53.9547 4.39418 54.6934 4.39418C55.4142 4.39418 55.851 4.86648 55.851 5.65838V9H56.9128V5.53054C56.9128 4.18111 56.1706 3.47443 55.0556 3.47443C54.2353 3.47443 53.699 3.8544 53.4469 4.43324H53.3794V3.54545H52.3603V9H53.4221V5.76136ZM60.633 3.54545H59.5144V2.23864H58.4526V3.54545H57.6536V4.39773H58.4526V7.61861C58.449 8.60938 59.2054 9.08878 60.0435 9.07102C60.3809 9.06747 60.6081 9.00355 60.7324 8.95739L60.5407 8.08026C60.4696 8.09446 60.3382 8.12642 60.1678 8.12642C59.8233 8.12642 59.5144 8.01278 59.5144 7.39844V4.39773H60.633V3.54545ZM63.7965 9.11009C65.3342 9.11009 66.3391 7.98438 66.3391 6.29759C66.3391 4.60014 65.3342 3.47443 63.7965 3.47443C62.2589 3.47443 61.2539 4.60014 61.2539 6.29759C61.2539 7.98438 62.2589 9.11009 63.7965 9.11009ZM63.8001 8.21875C62.7951 8.21875 62.3263 7.34162 62.3263 6.29403C62.3263 5.25 62.7951 4.36222 63.8001 4.36222C64.7979 4.36222 65.2667 5.25 65.2667 6.29403C65.2667 7.34162 64.7979 8.21875 63.8001 8.21875Z" fill="#A3A3A3"/>
<path d="M13.054 29H19.4773V27.9062H14.7443V27.8267L17.0312 25.3807C18.7812 23.5064 19.2983 22.6314 19.2983 21.5028C19.2983 19.9318 18.0256 18.679 16.2358 18.679C14.451 18.679 13.0938 19.892 13.0938 21.6818H14.267C14.267 20.5234 15.0178 19.7528 16.196 19.7528C17.2997 19.7528 18.1449 20.429 18.1449 21.5028C18.1449 22.4425 17.593 23.1385 16.4148 24.4261L13.054 28.1051V29ZM24.5016 29.1392C26.7487 29.1392 28.0413 27.2351 28.0413 23.9091C28.0413 20.608 26.7288 18.679 24.5016 18.679C22.2743 18.679 20.9618 20.608 20.9618 23.9091C20.9618 27.2351 22.2544 29.1392 24.5016 29.1392ZM24.5016 28.0455C23.02 28.0455 22.155 26.5589 22.155 23.9091C22.155 21.2642 23.03 19.7528 24.5016 19.7528C25.9732 19.7528 26.8482 21.2642 26.8482 23.9091C26.8482 26.5589 25.9831 28.0455 24.5016 28.0455ZM33.1999 18.3409H32.126L28.8447 30.5312H29.9186L33.1999 18.3409ZM37.5418 29.1392C39.789 29.1392 41.0816 27.2351 41.0816 23.9091C41.0816 20.608 39.7691 18.679 37.5418 18.679C35.3145 18.679 34.002 20.608 34.002 23.9091C34.002 27.2351 35.2946 29.1392 37.5418 29.1392ZM37.5418 28.0455C36.0603 28.0455 35.1952 26.5589 35.1952 23.9091C35.1952 21.2642 36.0702 19.7528 37.5418 19.7528C39.0134 19.7528 39.8884 21.2642 39.8884 23.9091C39.8884 26.5589 39.0233 28.0455 37.5418 28.0455ZM46.0611 29.1392C48.0348 29.1392 49.5015 27.9013 49.5015 26.2358C49.5015 24.9432 48.7358 24.0036 47.4532 23.7898V23.7102C48.4823 23.397 49.1236 22.5518 49.1236 21.4034C49.1236 19.9616 47.9851 18.679 46.1009 18.679C44.3409 18.679 42.8793 19.7628 42.8196 21.3636H44.0128C44.0576 20.3494 45.0221 19.7528 46.081 19.7528C47.2046 19.7528 47.9304 20.4339 47.9304 21.4631C47.9304 22.5369 47.0902 23.233 45.8821 23.233H45.0668V24.3267H45.8821C47.4283 24.3267 48.2884 25.1122 48.2884 26.2358C48.2884 27.3146 47.3488 28.0455 46.0412 28.0455C44.863 28.0455 43.9283 27.4389 43.8537 26.4545H42.6009C42.6755 28.0554 44.0874 29.1392 46.0611 29.1392ZM54.8042 18.3409H53.7303L50.449 30.5312H51.5229L54.8042 18.3409ZM59.4046 18.8182H58.1717L55.6262 20.5085V21.7614L58.112 20.1108H58.1717V29H59.4046V18.8182ZM65.2244 18.679C63.1562 18.6541 61.8238 20.2102 61.8238 22.0795C61.8238 24.0483 63.2755 25.4602 65.0255 25.4602C66.0795 25.4602 66.9744 24.9432 67.5312 24.108H67.6107C67.6107 26.6136 66.6363 28.0455 65.0653 28.0455C63.9914 28.0455 63.3352 27.3693 63.1164 26.4347H61.9033C62.142 28.0455 63.355 29.1392 65.0653 29.1392C67.3522 29.1392 68.7641 27.1108 68.7641 23.4915C68.7641 19.7528 66.8948 18.6989 65.2244 18.679ZM65.2244 19.7727C66.4971 19.7727 67.4317 20.8665 67.4317 22.0597C67.4317 23.2727 66.4374 24.3665 65.1846 24.3665C63.9317 24.3665 63.017 23.3523 63.017 22.0795C63.017 20.8068 63.9715 19.7727 65.2244 19.7727ZM73.6306 29.1392C75.664 29.1392 77.0809 27.951 77.0908 26.2955C77.0809 25.0078 76.2208 23.9141 75.1221 23.7102V23.6506C76.0766 23.402 76.703 22.4673 76.713 21.3835C76.703 19.8324 75.4005 18.679 73.6306 18.679C71.8408 18.679 70.5382 19.8324 70.5482 21.3835C70.5382 22.4673 71.1647 23.402 72.1391 23.6506V23.7102C71.0205 23.9141 70.1604 25.0078 70.1703 26.2955C70.1604 27.951 71.5773 29.1392 73.6306 29.1392ZM73.6306 28.0455C72.2336 28.0455 71.3735 27.3295 71.3834 26.2358C71.3735 25.0874 72.323 24.267 73.6306 24.267C74.9182 24.267 75.8678 25.0874 75.8777 26.2358C75.8678 27.3295 75.0077 28.0455 73.6306 28.0455ZM73.6306 23.2131C72.5169 23.2131 71.7314 22.517 71.7414 21.4631C71.7314 20.429 72.4871 19.7528 73.6306 19.7528C74.7542 19.7528 75.5098 20.429 75.5198 21.4631C75.5098 22.517 74.7243 23.2131 73.6306 23.2131ZM82.0268 29.1392C84.0851 29.1641 85.4274 27.6129 85.4274 25.7188C85.4274 23.75 83.9707 22.3381 82.2257 22.3381C81.1767 22.3381 80.2768 22.8501 79.72 23.6903H79.6405C79.6455 21.2095 80.6099 19.7727 82.1859 19.7727C83.2598 19.7727 83.9061 20.4489 84.1348 21.3636H85.3479C85.0993 19.7827 83.8962 18.679 82.1859 18.679C79.894 18.679 78.4871 20.7074 78.4871 24.3068C78.4871 28.0703 80.3564 29.1193 82.0268 29.1392ZM82.0268 28.0455C80.7491 28.0455 79.8145 26.9567 79.8195 25.7386C79.8244 24.5206 80.8038 23.4318 82.0666 23.4318C83.3145 23.4318 84.2342 24.456 84.2342 25.7188C84.2342 27.0114 83.2747 28.0455 82.0268 28.0455Z" fill="#1D2C4B"/>
<path d="M115.5 16.5V18.1667" stroke="#A3A3A3" stroke-width="1.5" stroke-linecap="round" stroke-linejoin="round"/>
<path d="M108.833 16.5V18.1667" stroke="#A3A3A3" stroke-width="1.5" stroke-linecap="round" stroke-linejoin="round"/>
<path d="M105.5 21.5002H118.833" stroke="#A3A3A3" stroke-width="1.5" stroke-linecap="round" stroke-linejoin="round"/>
<path d="M118.833 22.3335V19.8335C118.833 18.4527 117.714 17.3335 116.333 17.3335H108C106.619 17.3335 105.5 18.4527 105.5 19.8335V27.3335C105.5 28.7143 106.619 29.8335 108 29.8335H112.167" stroke="#A3A3A3" stroke-width="1.5" stroke-linecap="round" stroke-linejoin="round"/>
<path d="M118.934 25.566C120.016 26.6477 119.899 28.4718 118.586 29.3943C117.75 29.981 116.582 29.981 115.747 29.3943C114.432 28.4727 114.317 26.6477 115.398 25.566C116.375 24.5893 117.958 24.5893 118.934 25.566" stroke="#A3A3A3" stroke-width="1.5" stroke-linecap="round" stroke-linejoin="round"/>
<path d="M120.5 30.6668L118.933 29.1001" stroke="#A3A3A3" stroke-width="1.5" stroke-linecap="round" stroke-linejoin="round"/>
</svg>
