<svg width="219" height="20" viewBox="0 0 219 20" fill="none" xmlns="http://www.w3.org/2000/svg">
<path d="M7.44629 8.80029V12.501C7.44629 12.7311 7.63303 12.9178 7.86313 12.9178H12.1741C12.4042 12.9178 12.5909 12.7311 12.5909 12.501V8.80029" stroke="#0065FF" stroke-width="1.5" stroke-linecap="round" stroke-linejoin="round"/>
<path d="M15.3055 4.69437C18.2358 7.62476 18.2358 12.3751 15.3055 15.3055C12.3751 18.2358 7.62476 18.2358 4.69437 15.3055C1.76399 12.3751 1.76399 7.62476 4.69437 4.69437C7.62476 1.76399 12.3751 1.76399 15.3055 4.69437" stroke="#0065FF" stroke-width="1.5" stroke-linecap="round" stroke-linejoin="round"/>
<path d="M6.59595 9.35131L10.0691 7.08203L13.4038 9.35131" stroke="#0065FF" stroke-width="1.5" stroke-linecap="round" stroke-linejoin="round"/>
<path d="M28.4148 15C31.517 15 33.3118 13.076 33.3118 9.89418C33.3118 6.72727 31.517 4.81818 28.5192 4.81818H25.1186V15H28.4148ZM26.6548 13.6577V6.16051H28.4247C30.652 6.16051 31.8004 7.4929 31.8004 9.89418C31.8004 12.3054 30.652 13.6577 28.3303 13.6577H26.6548ZM34.7528 15H36.2393V10.3366C36.2393 9.33736 37.0099 8.61648 38.0639 8.61648C38.3721 8.61648 38.7201 8.67116 38.8395 8.70597V7.28409C38.6903 7.2642 38.397 7.24929 38.2081 7.24929C37.3132 7.24929 36.5475 7.75639 36.2691 8.5767H36.1896V7.36364H34.7528V15ZM40.9479 17.8636C42.1759 17.8636 42.9515 17.2223 43.3939 16.0192L46.5509 7.37855L44.9451 7.36364L43.0111 13.2898H42.9316L40.9976 7.36364H39.4067L42.2007 15.0994L42.0168 15.6065C41.639 16.6207 41.107 16.7053 40.2917 16.4815L39.9337 17.6996C40.1127 17.7791 40.5005 17.8636 40.9479 17.8636ZM54.1343 7.36364H52.5384L50.6094 13.2401H50.5299L48.596 7.36364H47.0001L49.7742 15H51.3651L54.1343 7.36364ZM58.1991 15.1541C59.8646 15.1541 61.0428 14.3338 61.3809 13.0909L59.9739 12.8374C59.7055 13.5582 59.0592 13.9261 58.214 13.9261C56.9413 13.9261 56.0862 13.1009 56.0464 11.6293H61.4754V11.1023C61.4754 8.34304 59.8248 7.2642 58.0947 7.2642C55.9668 7.2642 54.5648 8.88494 54.5648 11.2315C54.5648 13.603 55.9469 15.1541 58.1991 15.1541ZM56.0513 10.5156C56.111 9.43182 56.8965 8.49219 58.1046 8.49219C59.258 8.49219 60.0137 9.3473 60.0187 10.5156H56.0513ZM71.7385 9.90909C71.7385 6.6527 69.7896 4.67898 67.1547 4.67898C64.5098 4.67898 62.5659 6.6527 62.5659 9.90909C62.5659 13.1605 64.5098 15.1392 67.1547 15.1392C69.7896 15.1392 71.7385 13.1655 71.7385 9.90909ZM70.2172 9.90909C70.2172 12.3899 68.9047 13.7372 67.1547 13.7372C65.3997 13.7372 64.0922 12.3899 64.0922 9.90909C64.0922 7.42827 65.3997 6.08097 67.1547 6.08097C68.9047 6.08097 70.2172 7.42827 70.2172 9.90909ZM74.671 10.4659C74.671 9.24787 75.4167 8.55185 76.4508 8.55185C77.46 8.55185 78.0715 9.21307 78.0715 10.3217V15H79.558V10.1428C79.558 8.25355 78.519 7.2642 76.9579 7.2642C75.8094 7.2642 75.0587 7.79616 74.7058 8.60653H74.6113V7.36364H73.1844V15H74.671V10.4659ZM84.4928 15.1541C86.1583 15.1541 87.3366 14.3338 87.6746 13.0909L86.2677 12.8374C85.9992 13.5582 85.3529 13.9261 84.5077 13.9261C83.235 13.9261 82.3799 13.1009 82.3401 11.6293H87.7691V11.1023C87.7691 8.34304 86.1185 7.2642 84.3884 7.2642C82.2606 7.2642 80.8586 8.88494 80.8586 11.2315C80.8586 13.603 82.2407 15.1541 84.4928 15.1541ZM82.3451 10.5156C82.4048 9.43182 83.1903 8.49219 84.3984 8.49219C85.5518 8.49219 86.3075 9.3473 86.3124 10.5156H82.3451ZM96.9228 10.0533H92.4086V11.3409H96.9228V10.0533ZM102.028 15H103.565V10.5604H107.89V9.2429H103.565V6.14062H108.342V4.81818H102.028V15ZM109.666 15H111.153V10.3366C111.153 9.33736 111.924 8.61648 112.978 8.61648C113.286 8.61648 113.634 8.67116 113.753 8.70597V7.28409C113.604 7.2642 113.311 7.24929 113.122 7.24929C112.227 7.24929 111.461 7.75639 111.183 8.5767H111.103V7.36364H109.666V15ZM117.707 15.1541C119.373 15.1541 120.551 14.3338 120.889 13.0909L119.482 12.8374C119.214 13.5582 118.567 13.9261 117.722 13.9261C116.449 13.9261 115.594 13.1009 115.555 11.6293H120.984V11.1023C120.984 8.34304 119.333 7.2642 117.603 7.2642C115.475 7.2642 114.073 8.88494 114.073 11.2315C114.073 13.603 115.455 15.1541 117.707 15.1541ZM115.56 10.5156C115.619 9.43182 116.405 8.49219 117.613 8.49219C118.766 8.49219 119.522 9.3473 119.527 10.5156H115.56ZM125.142 15.1491C126.534 15.1491 127.08 14.299 127.349 13.8118H127.473V15H128.925V4.81818H127.438V8.60156H127.349C127.08 8.12926 126.573 7.2642 125.151 7.2642C123.307 7.2642 121.95 8.72088 121.95 11.1967C121.95 13.6676 123.287 15.1491 125.142 15.1491ZM125.47 13.8814C124.142 13.8814 123.451 12.7131 123.451 11.1818C123.451 9.66548 124.127 8.52699 125.47 8.52699C126.767 8.52699 127.463 9.58594 127.463 11.1818C127.463 12.7876 126.752 13.8814 125.47 13.8814ZM133.988 15.1541C135.653 15.1541 136.831 14.3338 137.17 13.0909L135.763 12.8374C135.494 13.5582 134.848 13.9261 134.003 13.9261C132.73 13.9261 131.875 13.1009 131.835 11.6293H137.264V11.1023C137.264 8.34304 135.613 7.2642 133.883 7.2642C131.756 7.2642 130.354 8.88494 130.354 11.2315C130.354 13.603 131.736 15.1541 133.988 15.1541ZM131.84 10.5156C131.9 9.43182 132.685 8.49219 133.893 8.49219C135.047 8.49219 135.802 9.3473 135.807 10.5156H131.84ZM138.563 15H140.05V10.3366C140.05 9.33736 140.82 8.61648 141.874 8.61648C142.183 8.61648 142.531 8.67116 142.65 8.70597V7.28409C142.501 7.2642 142.208 7.24929 142.019 7.24929C141.124 7.24929 140.358 7.75639 140.08 8.5767H140V7.36364H138.563V15ZM143.586 15H145.073V7.36364H143.586V15ZM144.337 6.18537C144.849 6.18537 145.277 5.78764 145.277 5.30043C145.277 4.81321 144.849 4.41051 144.337 4.41051C143.82 4.41051 143.397 4.81321 143.397 5.30043C143.397 5.78764 143.82 6.18537 144.337 6.18537ZM149.939 15.1541C151.744 15.1541 152.912 14.0703 153.076 12.5838H151.63C151.441 13.4091 150.799 13.8963 149.949 13.8963C148.691 13.8963 147.881 12.8473 147.881 11.1818C147.881 9.54616 148.706 8.51705 149.949 8.51705C150.894 8.51705 151.471 9.11364 151.63 9.82955H153.076C152.917 8.28835 151.66 7.2642 149.924 7.2642C147.772 7.2642 146.38 8.88494 146.38 11.2166C146.38 13.5185 147.722 15.1541 149.939 15.1541ZM157.533 15.1541C159.685 15.1541 161.092 13.5781 161.092 11.2166C161.092 8.8402 159.685 7.2642 157.533 7.2642C155.38 7.2642 153.973 8.8402 153.973 11.2166C153.973 13.5781 155.38 15.1541 157.533 15.1541ZM157.538 13.9062C156.131 13.9062 155.474 12.6783 155.474 11.2116C155.474 9.75 156.131 8.5071 157.538 8.5071C158.935 8.5071 159.591 9.75 159.591 11.2116C159.591 12.6783 158.935 13.9062 157.538 13.9062ZM165.876 15H169.779C172.145 15 173.214 13.8217 173.214 12.2607C173.214 10.6847 172.11 9.79474 171.101 9.74006V9.64062C172.036 9.40199 172.816 8.76562 172.816 7.4929C172.816 5.98651 171.772 4.81818 169.605 4.81818H165.876V15ZM167.412 13.6825V10.4212H169.684C170.917 10.4212 171.688 11.2166 171.688 12.1861C171.688 13.0412 171.106 13.6825 169.63 13.6825H167.412ZM167.412 9.22301V6.12571H169.51C170.728 6.12571 171.31 6.76705 171.31 7.61222C171.31 8.59659 170.505 9.22301 169.47 9.22301H167.412ZM177.783 15.1541C179.936 15.1541 181.343 13.5781 181.343 11.2166C181.343 8.8402 179.936 7.2642 177.783 7.2642C175.631 7.2642 174.224 8.8402 174.224 11.2166C174.224 13.5781 175.631 15.1541 177.783 15.1541ZM177.788 13.9062C176.382 13.9062 175.725 12.6783 175.725 11.2116C175.725 9.75 176.382 8.5071 177.788 8.5071C179.185 8.5071 179.842 9.75 179.842 11.2116C179.842 12.6783 179.185 13.9062 177.788 13.9062ZM185.944 15.1541C187.609 15.1541 188.787 14.3338 189.125 13.0909L187.718 12.8374C187.45 13.5582 186.804 13.9261 185.959 13.9261C184.686 13.9261 183.831 13.1009 183.791 11.6293H189.22V11.1023C189.22 8.34304 187.569 7.2642 185.839 7.2642C183.711 7.2642 182.309 8.88494 182.309 11.2315C182.309 13.603 183.691 15.1541 185.944 15.1541ZM183.796 10.5156C183.856 9.43182 184.641 8.49219 185.849 8.49219C187.003 8.49219 187.758 9.3473 187.763 10.5156H183.796ZM190.519 15H192.006V10.3366C192.006 9.33736 192.776 8.61648 193.83 8.61648C194.139 8.61648 194.487 8.67116 194.606 8.70597V7.28409C194.457 7.2642 194.163 7.24929 193.974 7.24929C193.08 7.24929 192.314 7.75639 192.036 8.5767H191.956V7.36364H190.519V15ZM195.542 15H197.029V7.36364H195.542V15ZM196.293 6.18537C196.805 6.18537 197.233 5.78764 197.233 5.30043C197.233 4.81321 196.805 4.41051 196.293 4.41051C195.776 4.41051 195.353 4.81321 195.353 5.30043C195.353 5.78764 195.776 6.18537 196.293 6.18537Z" fill="#1D2C4B"/>
<path d="M208.333 8.6665L211 11.3332L213.667 8.6665" stroke="#1D2C4B" stroke-width="1.5" stroke-linecap="round" stroke-linejoin="round"/>
</svg>
