<svg width="84" height="38" viewBox="0 0 84 38" fill="none" xmlns="http://www.w3.org/2000/svg">
<path d="M66.9445 17.0555C68.0185 18.1294 68.0185 19.8706 66.9445 20.9445C65.8706 22.0185 64.1294 22.0185 63.0555 20.9445C61.9815 19.8706 61.9815 18.1294 63.0555 17.0555C64.1294 15.9815 65.8706 15.9815 66.9445 17.0555" stroke="#1D2C4B" stroke-width="1.5" stroke-linecap="round" stroke-linejoin="round"/>
<path fill-rule="evenodd" clip-rule="evenodd" d="M68.8317 25.1646V25.1646C69.2927 25.6257 70.0417 25.6257 70.5027 25.1646L71.1646 24.5027C71.6257 24.0417 71.6257 23.2927 71.1646 22.8317V22.8317C70.8144 22.4815 70.7117 21.9562 70.9042 21.4997C70.9244 21.4512 70.9446 21.4026 70.9638 21.3531C71.1316 20.9259 71.5477 20.6509 72.0061 20.6509H72.0675C72.7202 20.6509 73.2491 20.122 73.2491 19.4693V18.5334C73.2491 17.8807 72.7202 17.3518 72.0675 17.3518H72.0061C71.5477 17.3518 71.1316 17.0759 70.9638 16.6497C70.9446 16.6002 70.9244 16.5516 70.9042 16.503C70.7117 16.0465 70.8144 15.5212 71.1646 15.1711V15.1711C71.6257 14.71 71.6257 13.9611 71.1646 13.5L70.5027 12.8382C70.0417 12.3771 69.2927 12.3771 68.8317 12.8382V12.8382C68.4815 13.1883 67.9562 13.291 67.4997 13.0985C67.4512 13.0783 67.4026 13.0582 67.3531 13.0389C66.9259 12.8684 66.65 12.4513 66.65 11.993V11.9316C66.65 11.2789 66.1211 10.75 65.4684 10.75H64.5325C63.8789 10.75 63.35 11.2789 63.35 11.9316V11.993C63.35 12.4513 63.0741 12.8675 62.6478 13.0352C62.5983 13.0554 62.5497 13.0747 62.5012 13.0957C62.0447 13.2882 61.5194 13.1856 61.1692 12.8354V12.8354C60.7082 12.3743 59.9592 12.3743 59.4982 12.8354L58.8354 13.4972C58.3743 13.9583 58.3743 14.7072 58.8354 15.1683V15.1683C59.1856 15.5185 59.2882 16.0437 59.0957 16.5002C59.0747 16.5497 59.0554 16.5983 59.0362 16.6478C58.8684 17.0741 58.4513 17.35 57.993 17.35H57.9316C57.2789 17.35 56.75 17.8789 56.75 18.5316V19.4675C56.75 20.1211 57.2789 20.65 57.9316 20.65H57.993C58.4513 20.65 58.8675 20.9259 59.0352 21.3522C59.0545 21.4017 59.0747 21.4502 59.0948 21.4988C59.2873 21.9553 59.1847 22.4806 58.8345 22.8307V22.8307C58.3734 23.2918 58.3734 24.0407 58.8345 24.5018L59.4963 25.1637C59.9574 25.6247 60.7063 25.6247 61.1674 25.1637V25.1637C61.5176 24.8135 62.0428 24.7108 62.4993 24.9033C62.5479 24.9235 62.5965 24.9437 62.646 24.9629C63.0732 25.1307 63.3482 25.5468 63.3482 26.0052V26.0666C63.3482 26.7192 63.8771 27.2482 64.5297 27.2482H65.4657C66.1183 27.2482 66.6472 26.7192 66.6472 26.0666V26.0052C66.6472 25.5468 66.9232 25.1307 67.3494 24.9629C67.3989 24.9437 67.4475 24.9235 67.4961 24.9033C67.9553 24.7117 68.4806 24.8144 68.8317 25.1646V25.1646Z" stroke="#1D2C4B" stroke-width="1.5" stroke-linecap="round" stroke-linejoin="round"/>
<path d="M20.4668 26.3333H17.5334" stroke="#1D2C4B" stroke-width="1.5" stroke-linecap="round" stroke-linejoin="round"/>
<path fill-rule="evenodd" clip-rule="evenodd" d="M23.5833 17.1962V17.1668V17.1668C23.5833 14.6359 21.5308 12.5835 18.9999 12.5835V12.5835C16.469 12.5835 14.4166 14.6359 14.4166 17.1668V17.1668V17.1962V19.4622C14.4166 19.7592 14.2488 20.0296 13.9839 20.1625L13.5228 20.3926C12.9472 20.6813 12.5833 21.2698 12.5833 21.9133V21.9133C12.5833 22.852 13.3441 23.6128 14.2828 23.6128H23.7171C24.6558 23.6128 25.4166 22.852 25.4166 21.9133V21.9133C25.4166 21.2698 25.0527 20.6813 24.477 20.3935L24.0159 20.1634C23.751 20.0296 23.5833 19.7592 23.5833 19.4622V17.1962Z" stroke="#1D2C4B" stroke-width="1.5" stroke-linecap="round" stroke-linejoin="round"/>
<circle cx="25" cy="12" r="5" fill="#FF5630" stroke="white" stroke-width="2"/>
</svg>
